# xmcd
#
# Track frame offsets: 
#        150
#        20620
#        38655
#        54255
#        69155
#        85685
#        101527
#        116722
#        130285
#        147635
#        163707
#
# Disc length: 2450 seconds
#
# Revision: 2
# Processed by: cddbd v1.5PL3 Copyright (c) Steve Scherf et al.
# Submitted via: ExactAudioCopy v0.95a3
#
DISCID=8f09900b
DTITLE=Tracy Byrd - It's About Time
DYEAR=1999
DGENRE=Country
TTITLE0=Put Your Hand In Mine
TTITLE1=It's About Time
TTITLE2=Can't Have One Without The Other
TTITLE3=Take Me With You When You Go
TTITLE4=Every Time I Do
TTITLE5=Love, You Ain't Seen The Last Of Me
TTITLE6=Ain't It Just Like A Woman
TTITLE7=Undo The Right
TTITLE8=Proud Of Me
TTITLE9=A Little Love
TTITLE10=Something To Brag About
EXTD=\nYEAR: 2000  ID3G:   2
EXTT0=
EXTT1=
EXTT2=
EXTT3=
EXTT4=
EXTT5=
EXTT6=
EXTT7=
EXTT8=
EXTT9=
EXTT10=
PLAYORDER=
